<svg version="1.2" xmlns="http://www.w3.org/2000/svg" viewBox="0 0 500 500" width="500" height="500"><style>.a{fill:#4caf50}.b{fill:#1e88e5}.c{fill:#e53935}.d{fill:#c62828}.e{fill:#fbc02d}</style><path class="a" d="m494 159.3l-58.1 31.9-58.1 55.2v189.4h81.3c19.3 0 34.9-15.6 34.9-34.8z"/><path class="b" d="m6 159.3l42 19.8 74.2 67.3v189.4h-81.3c-19.3 0-34.9-15.6-34.9-34.8z"/><path class="c" d="m377.8 101.2l-127.8 95.8-127.8-95.8-11.6 67.4 11.6 77.8 127.8 95.9 127.8-95.9 11.6-77.8z"/><path class="d" d="m6 113.9v45.4l116.2 87.1v-145.2l-36.3-27.2c-8.7-6.5-19.2-10-30-10-27.5 0-49.9 22.4-49.9 49.9z"/><path class="e" d="m494 113.9v45.4l-116.2 87.1v-145.2l36.3-27.2c8.7-6.5 19.2-10 30-10 27.5 0 49.9 22.4 49.9 49.9z"/></svg>