<svg version="1.2" xmlns="http://www.w3.org/2000/svg" viewBox="0 0 500 500" width="500" height="500"><style></style><path  d="m338.3 3.2c-5.9 0-12.8 0.4-21.2 1.1l-275.2 20.2c-22.2 1.9-29.9 16.3-29.9 33.5v299.5c0 13.4 4.8 24.9 16.4 40.3l64.7 83.5c10.6 13.4 20.3 16.3 40.6 15.3l319.5-19.2c27.1-1.9 34.8-14.4 34.8-35.5v-336.8c0-11.5-4.8-14.4-19.3-25l-87.9-61.4c-15.9-11.5-24.8-15.5-42.5-15.5zm-5.7 26.3c17.4 0.3 27.4 7 35.1 12.9l45.9 33.1c1.9 0.9 6.8 6.8 0.9 6.8l-276.5 16.5c-29.3 1.9-35.2 2.9-50.8-9.7l-38.1-30.2c-3.9-3.8-1.9-8.7 7.9-9.7l267.7-19.4q4.2-0.3 7.9-0.3zm108.4 88.4c8.1 0.8 11.7 7.3 11.7 18.2v284.1c0 12.4-1.9 23-19.2 24l-299.5 17.3c-17.3 0.9-25-4.9-25-20.2v-286c0-12.5 3.8-18.3 15.4-19.2l312.9-18.2q2-0.2 3.7 0zm-32.3 48.4l-61.7 4.4c-14.5 1.7-22.1 8.8-22.1 17.6l26.5 4.4v132.2l-101.4-149.8-68.7 6c-13.6 1.7-18.4 13.4-16.4 22.1l23.4 2.7v185.1l-8.8 4.4c-17.6 4.5-13.2 13.3-13.2 17.7l70.5-4.4c22-4.4 22-17.7 22-17.7l-35.2-8.8v-141l96.4 149.6c11.5 14.3 16 22.3 31.4 22.3 13.2 0 26.4-4.4 35.2-13.2v-211.6l12.3-2.4c9.8-2 14.2-10.8 9.8-19.6z"/></svg>