<svg version="1.2" xmlns="http://www.w3.org/2000/svg" viewBox="0 0 923 872" width="923" height="872"><style>.a{fill:#43a047}.b{fill:#c8e6c9}.c{fill:#2e7d32}.d{fill:#e8f5e9}</style><path class="a" d="m728.7 868.1h-535c-34.1 0-61.8-27.6-61.8-61.7v-740.8c0-34.1 27.7-61.7 61.8-61.7h391l205.7 205.7v596.8c0 34.1-27.6 61.7-61.7 61.7z"/><path class="b" d="m790.4 209.6h-205.7v-205.7z"/><path class="c" d="m584.7 209.6l205.7 205.8v-205.8z"/><path class="d" d="m605.2 415.4h-288.1-41.1v41.2 41.1 41.2 41.1 41.2 41.2 41.1h370.4v-41.1-41.2-41.2-41.1-41.2-41.1-41.2zm-288.1 41.2h82.3v41.1h-82.3zm0 82.3h82.3v41.2h-82.3zm0 82.3h82.3v41.2h-82.3zm288.1 41.1h-164.6v-41.1h164.6zm0-82.3h-164.6v-41.2h164.6zm0-82.3h-164.6v-41.2h164.6z"/></svg>