<svg version="1.2" xmlns="http://www.w3.org/2000/svg" viewBox="0 0 923 872" width="923" height="872"><style>.a{fill:#32325d}</style><path fill-rule="evenodd" class="a" d="m922 448.2c0-65.5-31.8-117.3-92.5-117.3-60.9 0-97.8 51.8-97.8 116.8 0 77.1 43.5 116 106 116 30.5 0 53.6-6.9 71-16.6v-51.2c-17.4 8.7-37.4 14.1-62.8 14.1-24.8 0-46.8-8.8-49.7-39h125.3c0-3.3 0.5-16.6 0.5-22.8zm-126.5-24.3c0-28.9 17.7-41 33.8-41 15.6 0 32.3 12.1 32.3 41z"/><path fill-rule="evenodd" class="a" d="m632.9 330.9c-25.1 0-41.3 11.8-50.2 20l-3.4-15.9h-56.3v298.7l64-13.6 0.3-72.5c9.2 6.7 22.8 16.1 45.3 16.1 45.8 0 87.6-36.8 87.6-118-0.3-74.3-42.5-114.8-87.3-114.8zm-15.4 176.5c-15.1 0-24.1-5.4-30.2-12l-0.3-95.1c6.7-7.4 15.9-12.5 30.5-12.5 23.3 0 39.4 26.1 39.4 59.7 0 34.3-15.9 59.9-39.4 59.9z"/><path fill-rule="evenodd" class="a" d="m499.2 250l-64.3 13.6v52.2l64.3-13.8z"/><path fill-rule="evenodd" class="a" d="m499.2 335.3v224.1h-64.3v-224.1z"/><path fill-rule="evenodd" class="a" d="m366 354.2l-4.1-18.9h-55.3v224.1h64v-151.9c15.1-19.7 40.7-16.1 48.7-13.3v-58.9c-8.2-3.1-38.2-8.7-53.3 18.9z"/><path fill-rule="evenodd" class="a" d="m237.9 279.7l-62.5 13.3-0.2 205.2c0 37.9 28.4 65.8 66.3 65.8 21 0 36.4-3.8 44.8-8.5v-52c-8.2 3.4-48.6 15.2-48.6-22.7v-91h48.6v-54.5h-48.6z"/><path fill-rule="evenodd" class="a" d="m64.8 400.3c0-10 8.2-13.8 21.8-13.8 19.4 0 44 5.9 63.5 16.4v-60.2c-21.3-8.4-42.3-11.8-63.5-11.8-52 0-86.6 27.2-86.6 72.5 0 70.7 97.3 59.4 97.3 89.9 0 11.8-10.2 15.6-24.6 15.6-21.2 0-48.4-8.7-69.9-20.5v61c23.8 10.2 47.9 14.6 69.9 14.6 53.3 0 89.9-26.4 89.9-72.2-0.2-76.4-97.8-62.8-97.8-91.5z"/></svg>